<mxfile host="app.diagrams.net" modified="2022-11-30T22:51:54.763Z" agent="5.0 (Windows)" version="20.6.0" etag="n36DEcVaB-d2NzKuc1LK" type="github">
  <diagram id="qnIRVG3tz1he2QiFeiK-" name="Page-1">
    <mxGraphModel dx="1014" dy="596" grid="1" gridSize="10" guides="1" tooltips="1" connect="1" arrows="1" fold="1" page="1" pageScale="1" pageWidth="850" pageHeight="1100" math="0" shadow="0">
      <root>
        <mxCell id="0" />
        <mxCell id="1" parent="0" />
        <mxCell id="dKuwPI1pspKxbOnBaksO-34" value="" style="group" vertex="1" connectable="0" parent="1">
          <mxGeometry x="92" y="90" width="670" height="360" as="geometry" />
        </mxCell>
        <mxCell id="dKuwPI1pspKxbOnBaksO-4" value="" style="sketch=0;points=[[0,0,0],[0.25,0,0],[0.5,0,0],[0.75,0,0],[1,0,0],[0,1,0],[0.25,1,0],[0.5,1,0],[0.75,1,0],[1,1,0],[0,0.25,0],[0,0.5,0],[0,0.75,0],[1,0.25,0],[1,0.5,0],[1,0.75,0]];outlineConnect=0;fontColor=#232F3E;gradientColor=#F78E04;gradientDirection=north;fillColor=#D05C17;strokeColor=#ffffff;dashed=0;verticalLabelPosition=bottom;verticalAlign=top;align=center;html=1;fontSize=12;fontStyle=0;aspect=fixed;shape=mxgraph.aws4.resourceIcon;resIcon=mxgraph.aws4.lambda;" vertex="1" parent="dKuwPI1pspKxbOnBaksO-34">
          <mxGeometry x="206" y="152" width="78" height="78" as="geometry" />
        </mxCell>
        <mxCell id="dKuwPI1pspKxbOnBaksO-6" value="" style="endArrow=classic;html=1;rounded=0;" edge="1" parent="dKuwPI1pspKxbOnBaksO-34" target="dKuwPI1pspKxbOnBaksO-7">
          <mxGeometry width="50" height="50" relative="1" as="geometry">
            <mxPoint x="286" y="190.5" as="sourcePoint" />
            <mxPoint x="388" y="190.5" as="targetPoint" />
          </mxGeometry>
        </mxCell>
        <mxCell id="dKuwPI1pspKxbOnBaksO-7" value="" style="sketch=0;points=[[0,0,0],[0.25,0,0],[0.5,0,0],[0.75,0,0],[1,0,0],[0,1,0],[0.25,1,0],[0.5,1,0],[0.75,1,0],[1,1,0],[0,0.25,0],[0,0.5,0],[0,0.75,0],[1,0.25,0],[1,0.5,0],[1,0.75,0]];outlineConnect=0;fontColor=#232F3E;gradientColor=#945DF2;gradientDirection=north;fillColor=#5A30B5;strokeColor=#ffffff;dashed=0;verticalLabelPosition=bottom;verticalAlign=top;align=center;html=1;fontSize=12;fontStyle=0;aspect=fixed;shape=mxgraph.aws4.resourceIcon;resIcon=mxgraph.aws4.kinesis_data_firehose;" vertex="1" parent="dKuwPI1pspKxbOnBaksO-34">
          <mxGeometry x="386" y="152" width="78" height="78" as="geometry" />
        </mxCell>
        <mxCell id="dKuwPI1pspKxbOnBaksO-8" value="" style="endArrow=classic;html=1;rounded=0;" edge="1" parent="dKuwPI1pspKxbOnBaksO-34">
          <mxGeometry width="50" height="50" relative="1" as="geometry">
            <mxPoint x="464" y="190.5" as="sourcePoint" />
            <mxPoint x="566" y="190.5" as="targetPoint" />
          </mxGeometry>
        </mxCell>
        <mxCell id="dKuwPI1pspKxbOnBaksO-10" value="" style="sketch=0;points=[[0,0,0],[0.25,0,0],[0.5,0,0],[0.75,0,0],[1,0,0],[0,1,0],[0.25,1,0],[0.5,1,0],[0.75,1,0],[1,1,0],[0,0.25,0],[0,0.5,0],[0,0.75,0],[1,0.25,0],[1,0.5,0],[1,0.75,0]];outlineConnect=0;fontColor=#232F3E;gradientColor=#60A337;gradientDirection=north;fillColor=#277116;strokeColor=#ffffff;dashed=0;verticalLabelPosition=bottom;verticalAlign=top;align=center;html=1;fontSize=12;fontStyle=0;aspect=fixed;shape=mxgraph.aws4.resourceIcon;resIcon=mxgraph.aws4.s3;" vertex="1" parent="dKuwPI1pspKxbOnBaksO-34">
          <mxGeometry x="566" y="152" width="78" height="78" as="geometry" />
        </mxCell>
        <mxCell id="dKuwPI1pspKxbOnBaksO-11" value="" style="endArrow=classic;html=1;rounded=0;" edge="1" parent="dKuwPI1pspKxbOnBaksO-34">
          <mxGeometry width="50" height="50" relative="1" as="geometry">
            <mxPoint x="244.5" y="152" as="sourcePoint" />
            <mxPoint x="244.5" y="102" as="targetPoint" />
          </mxGeometry>
        </mxCell>
        <mxCell id="dKuwPI1pspKxbOnBaksO-17" value="CloudWatch Events" style="text;html=1;resizable=0;autosize=1;align=center;verticalAlign=middle;points=[];fillColor=none;strokeColor=none;rounded=0;" vertex="1" parent="dKuwPI1pspKxbOnBaksO-34">
          <mxGeometry y="230" width="130" height="30" as="geometry" />
        </mxCell>
        <mxCell id="dKuwPI1pspKxbOnBaksO-18" value="Amazon SNS" style="text;html=1;resizable=0;autosize=1;align=center;verticalAlign=middle;points=[];fillColor=none;strokeColor=none;rounded=0;" vertex="1" parent="dKuwPI1pspKxbOnBaksO-34">
          <mxGeometry x="104.25" y="327.5" width="100" height="30" as="geometry" />
        </mxCell>
        <mxCell id="dKuwPI1pspKxbOnBaksO-19" value="AWS Lambda" style="text;html=1;resizable=0;autosize=1;align=center;verticalAlign=middle;points=[];fillColor=none;strokeColor=none;rounded=0;" vertex="1" parent="dKuwPI1pspKxbOnBaksO-34">
          <mxGeometry x="191" y="230" width="100" height="30" as="geometry" />
        </mxCell>
        <mxCell id="dKuwPI1pspKxbOnBaksO-21" value="AWS Kinesis Firehose" style="text;html=1;resizable=0;autosize=1;align=center;verticalAlign=middle;points=[];fillColor=none;strokeColor=none;rounded=0;" vertex="1" parent="dKuwPI1pspKxbOnBaksO-34">
          <mxGeometry x="350" y="230" width="150" height="30" as="geometry" />
        </mxCell>
        <mxCell id="dKuwPI1pspKxbOnBaksO-22" value="Amazon S3 Bucket" style="text;html=1;resizable=0;autosize=1;align=center;verticalAlign=middle;points=[];fillColor=none;strokeColor=none;rounded=0;" vertex="1" parent="dKuwPI1pspKxbOnBaksO-34">
          <mxGeometry x="536" y="230" width="130" height="30" as="geometry" />
        </mxCell>
        <mxCell id="dKuwPI1pspKxbOnBaksO-24" value="" style="outlineConnect=0;dashed=0;verticalLabelPosition=bottom;verticalAlign=top;align=center;html=1;shape=mxgraph.aws3.dynamo_db;fillColor=#2E73B8;gradientColor=none;" vertex="1" parent="dKuwPI1pspKxbOnBaksO-34">
          <mxGeometry x="209" width="72" height="81" as="geometry" />
        </mxCell>
        <mxCell id="dKuwPI1pspKxbOnBaksO-25" value="Amazon DynamoDB" style="text;html=1;resizable=0;autosize=1;align=center;verticalAlign=middle;points=[];fillColor=none;strokeColor=none;rounded=0;" vertex="1" parent="dKuwPI1pspKxbOnBaksO-34">
          <mxGeometry x="180" y="81" width="130" height="30" as="geometry" />
        </mxCell>
        <mxCell id="dKuwPI1pspKxbOnBaksO-26" value="" style="sketch=0;points=[[0,0,0],[0.25,0,0],[0.5,0,0],[0.75,0,0],[1,0,0],[0,1,0],[0.25,1,0],[0.5,1,0],[0.75,1,0],[1,1,0],[0,0.25,0],[0,0.5,0],[0,0.75,0],[1,0.25,0],[1,0.5,0],[1,0.75,0]];points=[[0,0,0],[0.25,0,0],[0.5,0,0],[0.75,0,0],[1,0,0],[0,1,0],[0.25,1,0],[0.5,1,0],[0.75,1,0],[1,1,0],[0,0.25,0],[0,0.5,0],[0,0.75,0],[1,0.25,0],[1,0.5,0],[1,0.75,0]];outlineConnect=0;fontColor=#232F3E;gradientColor=#F34482;gradientDirection=north;fillColor=#BC1356;strokeColor=#ffffff;dashed=0;verticalLabelPosition=bottom;verticalAlign=top;align=center;html=1;fontSize=12;fontStyle=0;aspect=fixed;shape=mxgraph.aws4.resourceIcon;resIcon=mxgraph.aws4.cloudwatch_2;" vertex="1" parent="dKuwPI1pspKxbOnBaksO-34">
          <mxGeometry x="26" y="152" width="78" height="78" as="geometry" />
        </mxCell>
        <mxCell id="dKuwPI1pspKxbOnBaksO-27" value="" style="endArrow=classic;html=1;rounded=0;" edge="1" parent="dKuwPI1pspKxbOnBaksO-34">
          <mxGeometry width="50" height="50" relative="1" as="geometry">
            <mxPoint x="104" y="191.9999999999999" as="sourcePoint" />
            <mxPoint x="205.99999999999977" y="191.9999999999999" as="targetPoint" />
          </mxGeometry>
        </mxCell>
        <mxCell id="dKuwPI1pspKxbOnBaksO-28" value="" style="endArrow=classic;html=1;rounded=0;" edge="1" parent="dKuwPI1pspKxbOnBaksO-34">
          <mxGeometry width="50" height="50" relative="1" as="geometry">
            <mxPoint x="156" y="191" as="sourcePoint" />
            <mxPoint x="156" y="251" as="targetPoint" />
          </mxGeometry>
        </mxCell>
        <mxCell id="dKuwPI1pspKxbOnBaksO-29" value="" style="outlineConnect=0;dashed=0;verticalLabelPosition=bottom;verticalAlign=top;align=center;html=1;shape=mxgraph.aws3.sns;fillColor=#D9A741;gradientColor=none;" vertex="1" parent="dKuwPI1pspKxbOnBaksO-34">
          <mxGeometry x="116" y="251" width="76.5" height="76.5" as="geometry" />
        </mxCell>
        <mxCell id="dKuwPI1pspKxbOnBaksO-23" value="EU-West 1" style="points=[[0,0],[0.25,0],[0.5,0],[0.75,0],[1,0],[1,0.25],[1,0.5],[1,0.75],[1,1],[0.75,1],[0.5,1],[0.25,1],[0,1],[0,0.75],[0,0.5],[0,0.25]];outlineConnect=0;gradientColor=none;html=1;whiteSpace=wrap;fontSize=12;fontStyle=0;container=1;pointerEvents=0;collapsible=0;recursiveResize=0;shape=mxgraph.aws4.group;grIcon=mxgraph.aws4.group_region;strokeColor=#147EBA;fillColor=none;verticalAlign=top;align=left;spacingLeft=30;fontColor=#147EBA;dashed=1;" vertex="1" parent="dKuwPI1pspKxbOnBaksO-34">
          <mxGeometry x="-12" width="682" height="360" as="geometry" />
        </mxCell>
      </root>
    </mxGraphModel>
  </diagram>
</mxfile>
